<?xml version="1.0" encoding="UTF-8"?>
<svg width="564.44mm" height="117.96mm" version="1.1" viewBox="0 0 564.44 117.96" xmlns="http://www.w3.org/2000/svg"><defs><clipPath id="clipPath188"><path d="m0 1080h1920v-1080h-1920z"/></clipPath></defs><g transform="translate(173.49 -81.276)"><g transform="matrix(.35278 0 0 -.35278 -229.93 330.76)"><g clip-path="url(#clipPath188)" fill="#fff"><g transform="translate(1149.5 607.27)"><path d="m0 0c-4.399-20.582-8.599-40.234-13.044-61.032 15.508 0.605 30.176 0.646 44.735 1.92 10.85 0.948 19.261 7.03 23.741 17.078 2.445 5.485 3.586 11.602 4.905 17.526 3.289 14.78-5.853 22.635-16.912 23.319-14.249 0.88-28.557 0.826-43.425 1.189m-132.15 92.111c2.416 0 138.86 0.093 205.07-0.05 24.745-0.053 49.389-1.68 73.479-7.914 13.723-3.551 26.866-8.579 38.611-16.718 19.283-13.362 30.038-31.495 30.295-55.209 0.35-32.33-9.774-60.488-34.064-82.695-12.254-11.203-26.706-18.626-42.508-23.529-2.43-0.754-4.861-1.508-7.429-3.344 1.626-0.648 3.241-1.326 4.881-1.938 7.015-2.615 13.598-6 19.088-11.168 8.435-7.94 11.761-18.249 13.066-29.337 1.68-14.28 0.335-28.508-0.769-42.774-1.087-14.06-1.066-28.176 1.975-42.517h-149.32c-2.479 8.415-1.59 17.086-0.994 25.701 0.781 11.29 1.921 22.555 2.663 33.847 0.204 3.098-0.184 6.307-0.789 9.369-1.212 6.125-5.007 10.37-10.881 12.321-4.02 1.335-8.258 2.545-12.447 2.735-9.063 0.409-18.157 0.126-27.761 0.126-5.969-28.063-11.926-56.065-17.916-84.224h-151.75c22.507 105.81 44.963 211.38 67.496 317.32" fill="#fff"/></g><g transform="translate(1546.5 604.65)"><path d="m0 0c-4.355-20.851-8.698-41.65-13.022-62.354 0.633-0.346 0.942-0.663 1.251-0.663 12.459-7e-3 24.937-0.41 37.371 0.147 13.621 0.609 24.414 6.761 30.023 19.573 2.715 6.202 4.631 12.989 5.537 19.695 1.887 13.952-6.474 23.335-20.674 23.733-12.452 0.35-24.918 0.194-37.378 0.235-0.903 3e-3 -1.807-0.206-3.108-0.366m-199.03-222.5c22.526 105.89 44.966 211.37 67.485 317.23 2.152 0 146.78 0.108 217.26-0.062 23.886-0.058 47.447-2.752 69.845-11.85 18.507-7.518 34.209-18.614 45.067-35.741 10.544-16.631 14.109-35.055 12.525-54.332-2.609-31.759-11.738-61.464-30.691-87.542-19.642-27.026-46.358-43.921-78.187-53.136-19.016-5.505-38.497-7.977-58.27-8.053-24.175-0.094-76.591-0.044-79.203-0.044-4.701-22.172-9.366-44.176-14.093-66.472z" fill="#fff"/></g><g transform="translate(592.75 489.6)"><path d="m0 0h138.7c-0.289-3.018-0.726-5.88-0.81-8.751-0.347-11.928 4.841-19.276 16.291-21.828 11.011-2.454 22.177-2.447 33.057 1.02 7.919 2.524 13.234 7.521 15.549 15.95 1.779 6.478-1.077 11.92-5.688 14.201-4.963 2.455-10.101 4.696-15.373 6.366-14.183 4.491-28.829 6.833-43.531 8.995-22.048 3.243-43.938 7.512-64.606 16.095-8.667 3.599-17.106 8.19-24.832 13.512-15.959 10.992-22.825 27.054-22.217 46.067 0.463 14.494 3.109 28.748 8.294 42.383 9.916 26.077 28.53 44.311 52.608 57.473 17.902 9.787 37.127 15.913 57.099 19.668 30.824 5.794 61.884 7.607 93.238 5.721 22.352-1.345 44.34-4.237 65.519-11.703 16.151-5.693 30.798-13.897 42.28-26.962 10.926-12.432 16.615-27.064 17.973-43.413 0.862-10.376 0.436-20.717-1.922-31.295h-132.44c-0.088 1.187-0.335 2.41-0.243 3.607 1.244 16.114-4.003 23.13-20.041 25.552-8.903 1.344-17.82 0.487-26.301-2.897-6.553-2.614-10.318-7.379-11.535-14.468-0.981-5.714 0.823-9.825 5.603-12.775 7.274-4.489 15.46-6.233 23.751-7.363 31.829-4.338 63.584-9.012 93.963-20.05 13.865-5.038 27.059-11.374 37.918-21.683 10.921-10.369 16.773-23.102 16.578-38.166-0.72-55.511-27.972-91.571-74.456-111.71-20.589-8.921-42.236-13.859-64.405-16.785-29.239-3.859-58.597-4.55-87.948-2.204-26.764 2.14-53.001 7.029-77.224 19.448-18.172 9.316-33.003 22.075-41.367 41.221-6.759 15.472-7.571 31.565-4.762 47.998 0.37 2.168 0.813 4.324 1.278 6.779" fill="#fff"/></g><g transform="translate(259.57 540.96)"><path d="m0 0c0-56.319-11.501-109.96-32.286-158.8h-67.286c22.505 105.88 44.934 211.33 67.477 317.13 20.671-48.677 32.095-102.21 32.095-158.34" fill="#fff"/></g><g transform="translate(510.37 567.47)"><path d="m0 0c-12.189-3.018-24.224-6.457-36.031-10.431-52.88 18.913-101.29 47.264-143.17 83.066-14.94 12.723-29.039 26.363-42.182 40.883-5.426 5.96-10.661 12.074-15.742 18.302h27.013c6.992-7.948 14.328-15.666 21.932-23.078 25.943-25.333 55.211-47.57 87.421-66.178 32.133-18.531 65.948-32.744 100.76-42.564" fill="#fff"/></g><g transform="translate(424.82 445.59)"><path d="m0 0c39.087 22.581 80.849 38.247 123.83 46.805-7.795-36.718-15.589-73.436-23.422-110.23h-183.59c24.568 24.339 52.422 45.659 83.18 63.426" fill="#fff"/></g><g transform="translate(432.5 540.96)"><path d="m0 0c-33.547-14.71-65.146-33.089-94.26-54.676 1.986 17.958 3.018 36.221 3.018 54.676 0 18.493-1.032 36.757-3.057 54.715 29.115-21.55 60.752-39.967 94.299-54.715" fill="#fff"/></g><g transform="translate(310.89 540.96)"><path d="m0 0c0-28.351-2.598-56.09-7.565-83.065-3.554-19.449-8.368-38.438-14.328-56.893-2.026-6.343-4.203-12.609-6.572-18.837h-22.314c6.304 16.086 11.653 32.63 16.048 49.557 9.017 34.961 13.831 71.526 13.831 109.24 0 37.75-4.814 74.354-13.87 109.32 8.75-9.056 17.805-17.844 27.205-26.211 4.967-26.937 7.565-54.715 7.565-83.104" fill="#fff"/></g><g transform="translate(560.16 546.42)"><path d="m0 0c-1.528-7.298-3.095-14.596-4.623-21.855-15.169-2.522-30.223-5.923-45.124-10.126-34.809-9.743-68.661-23.994-100.8-42.564-32.209-18.569-61.477-40.845-87.421-66.177 3.439 11.883 6.457 23.957 8.979 36.222 41.877 35.725 90.287 64.114 143.17 82.989 18.225 6.495 36.947 11.921 56.166 16.047 9.743 2.14 19.639 3.974 29.65 5.464" fill="#fff"/></g><g transform="translate(592.71 699.29)"><path d="m0 0c-8.062-37.788-16.086-75.5-24.11-113.21-50.015 7.374-98.692 24.262-143.78 50.282-30.529 17.653-58.269 38.782-82.722 62.93z" fill="#fff"/></g></g></g></g></svg>
