<?xml version="1.0" encoding="UTF-8"?>
<svg width="564.44mm" height="148.21mm" version="1.1" viewBox="0 0 564.44 148.21" xmlns="http://www.w3.org/2000/svg" xmlns:xlink="http://www.w3.org/1999/xlink"><defs><clipPath id="clipPath240"><path d="m0 1080h1920v-1080h-1920z"/></clipPath><linearGradient id="linearGradient16118" x1="236.3" x2="236.3" y1="-416.43" y2="3.6912" gradientUnits="userSpaceOnUse"><stop stop-color="#c15a84" offset="0"/><stop stop-color="#d16162" offset="1"/></linearGradient></defs><g transform="translate(172.62 -98.542)"><g transform="matrix(.35278 0 0 -.35278 -229.06 363.15)"><g clip-path="url(#clipPath240)"><g transform="translate(723.72 746.37)"><path d="m0 0c-10.503-49.229-20.956-98.358-31.409-147.49-65.157 9.607-128.57 31.608-187.31 65.506-39.771 22.997-75.909 50.523-107.77 81.982zm-42.41-199.16c-1.991-9.507-4.032-19.015-6.023-28.472-19.761-3.285-39.373-7.716-58.786-13.191-45.346-12.693-89.448-31.26-131.31-55.451-41.962-24.191-80.091-53.211-113.89-86.213 4.48 15.481 8.412 31.21 11.697 47.188 54.555 46.541 117.62 83.525 186.51 108.12 23.743 8.462 48.134 15.53 73.171 20.906 12.693 2.787 25.586 5.177 38.627 7.118zm-324.74-7.12c0-36.934-3.385-73.072-9.856-108.21-4.629-25.336-10.901-50.075-18.666-74.117-2.638-8.263-5.475-16.427-8.562-24.54h-29.069c8.213 20.956 15.182 42.509 20.906 64.56 11.747 45.545 18.019 93.182 18.019 142.31s-6.272 96.865-18.069 142.41c11.399-11.797 23.196-23.246 35.441-34.147 6.471-35.093 9.856-71.28 9.856-108.26m158.44-6e-3c-43.704-19.164-84.869-43.106-122.8-71.23 2.589 23.395 3.933 47.188 3.933 71.23s-1.344 47.885-3.982 71.28c37.929-28.074 79.144-52.066 122.85-71.28m-10.011-124.24c50.921 29.418 105.33 49.826 161.33 60.976-10.155-47.835-20.309-95.67-30.513-143.6h-239.18c32.006 31.708 68.293 59.483 108.36 82.629m111.45 158.78c-15.879-3.932-31.558-8.412-46.939-13.589-68.891 24.639-131.96 61.574-186.51 108.21-19.462 16.576-37.83 34.346-54.953 53.261-7.068 7.765-13.888 15.729-20.508 23.843h35.192c9.109-10.354 18.666-20.408 28.572-30.065 33.798-33.002 71.927-61.972 113.89-86.213 41.862-24.142 85.915-42.658 131.26-55.451zm-326.73-34.55c0-73.371-14.983-143.26-42.061-206.87h-87.657c29.319 137.93 58.538 275.31 87.906 413.14 26.929-63.415 41.812-133.15 41.812-206.27m943.28 94.73c5.575 26.232 11.1 52.315 16.725 78.846h-31.26c0.797 3.833 1.444 7.218 2.141 10.553 1.443 6.67 2.986 13.34 4.28 20.059 0.448 2.34 1.494 2.738 3.584 2.738 12.444-0.099 24.839 0 37.283 0h76.357c-2.389-11.249-4.729-22.15-7.118-33.251-9.209 0-18.268-0.199-27.278 0.1-3.285 0.1-4.38-0.995-4.977-4.032-5.028-24.291-10.254-48.482-15.331-72.773-0.299-1.493-0.548-2.539-2.489-2.539-17.024 0.1-33.998 0.05-51.021 0.1-0.199 0-0.349 0.1-0.896 0.249zm-447.36 37.63h48.731c0.1-0.299 0.249-0.498 0.249-0.647-0.796-7.068 1.244-9.756 8.313-10.403 2.737-0.249 5.575 0.099 8.263 0.597 1.493 0.249 2.986 1.195 4.131 2.19 3.435 3.086 2.937 7.865-1.394 9.258-6.471 2.091-13.19 3.584-19.91 4.829-9.906 1.842-19.762 3.584-28.622 8.711-7.914 4.579-11.1 11.448-10.303 20.458 1.592 19.114 12.444 30.961 29.965 36.834 21.155 7.069 42.758 7.467 64.411 2.24 8.81-2.14 16.476-6.421 21.354-14.584 4.181-7.068 4.131-14.684 2.887-22.549h-46.89c-0.049 0.498-0.199 0.996-0.199 1.444 0.15 6.072-1.742 8.511-7.765 8.91-2.737 0.199-5.575-0.249-8.213-0.896-2.837-0.697-4.43-2.887-4.529-5.924-0.1-3.036 1.941-4.33 4.33-4.878 6.222-1.294 12.444-2.339 18.716-3.484 9.507-1.742 18.915-3.733 27.576-8.313 10.304-5.525 13.888-13.489 11.996-24.988-2.986-18.218-13.987-29.218-30.911-34.594-21.304-6.72-43.057-7.318-64.759-2.19-5.675 1.343-11.349 3.932-16.277 7.068-10.553 6.769-14.336 18.218-11.15 30.961zm764.46 74.47c-2.787-13.191-5.475-25.934-8.213-38.726 5.475-1.294 6.272-0.996 8.761 3.434 6.321 11.051 12.543 22.101 18.964 33.052 0.598 0.996 1.991 2.14 3.037 2.14 18.118 0.15 36.187 0.1 54.306 0.1 0.348 0 0.697-0.149 1.493-0.299-3.882-5.575-7.616-10.95-11.299-16.277-8.313-11.996-16.625-23.992-25.087-35.888-1.295-1.842-1.494-3.385-0.797-5.476 5.774-17.82 11.449-35.69 17.173-53.51 0.05-0.149 0-0.348-0.05-0.796-0.796-0.05-1.692-0.149-2.538-0.149-17.422 0-34.794 0.049-52.216-0.05-2.588 0-3.285 0.846-3.733 3.235-2.14 10.802-4.48 21.554-6.869 32.305-1.245 5.525-0.249 4.381-5.625 4.53h-2.688c-2.837-13.39-5.675-26.581-8.512-39.871h-53.758c2.19 10.353 4.38 20.508 6.52 30.662 4.182 19.612 8.313 39.174 12.494 58.786 1.394 6.571 2.887 13.191 4.132 19.811 0.398 2.191 1.145 3.136 3.583 3.086 15.929-0.099 31.808-0.049 47.736-0.049h3.136zm-412.1-0.25c-3.634-16.974-7.267-33.848-10.901-50.722-0.996-4.58-2.141-9.109-2.887-13.689-0.747-4.181-1.692-8.76 2.389-11.847 4.181-3.185 9.06-2.737 13.689-1.144 5.326 1.791 8.014 6.072 9.159 11.249 3.086 13.838 5.973 27.726 8.91 41.613 1.593 7.467 3.235 14.933 4.778 22.4 0.299 1.592 0.797 2.389 2.638 2.389 16.725-0.05 33.45 0 50.125-0.05 0.498 0 0.946-0.149 1.693-0.249-1.095-5.376-2.141-10.602-3.286-15.779-3.135-14.634-6.321-29.269-9.457-43.903-2.29-10.951-5.376-21.553-11.847-30.911-7.914-11.498-19.263-18.019-32.504-21.105-21.503-4.978-43.156-5.277-64.759-0.598-6.272 1.344-12.096 3.883-17.073 8.114-6.322 5.326-9.11 12.345-9.807 20.359-0.746 8.511 0.747 16.824 2.539 25.087 4.082 18.915 8.163 37.83 12.195 56.745 0.349 1.643 0.847 2.34 2.639 2.34 16.724-0.05 33.449 0 50.125-0.05 0.497 0 0.945-0.15 1.592-0.249zm566.8-47.19c0.099 7.317-2.091 10.702-7.118 12.444-8.91 3.086-19.463-0.796-22.748-9.507-2.638-7.068-4.131-14.684-5.226-22.201-0.847-5.575 2.439-9.606 7.367-11.199 8.312-2.688 17.919 0.896 22.1 8.611 3.933 7.218 4.281 15.381 5.675 21.902zm-30.264-68.293c-11.747 0.249-24.54 1.145-36.486 6.52-17.323 7.815-25.386 21.454-23.395 40.319 1.244 11.748 3.882 23.296 9.109 34.047 7.068 14.386 18.218 24.54 33.052 30.314 22.847 8.861 46.341 9.557 70.035 4.231 11.349-2.538 21.255-7.864 27.676-18.118 5.525-8.91 6.321-18.766 4.878-28.771-1.444-9.906-3.485-19.712-7.765-28.92-7.069-15.232-18.517-25.784-33.948-32.206-13.439-5.575-27.626-7.167-43.156-7.367zm-275.04 37.083c6.421 0.1 12.992 3.235 15.63 10.851 2.489 7.218 3.932 14.933 4.978 22.549 0.597 4.38-1.743 8.014-6.173 9.906-8.312 3.534-19.562 0.199-23.096-8.064-2.837-6.67-4.43-13.938-5.625-21.155-1.493-9.109 3.435-14.087 14.286-14.087m-9.209-37.083c-12.245 0.248-25.137 1.144-37.133 6.67-16.775 7.665-24.639 20.358-23.146 38.726 1.145 14.186 4.43 28.024 11.897 40.468 7.168 11.897 17.421 20.359 30.314 25.336 22.747 8.811 46.192 9.557 69.786 4.281 11.648-2.588 21.852-8.014 28.273-18.716 4.281-7.168 5.774-15.032 5.028-23.196-1.145-12.593-3.634-24.938-9.408-36.386-8.263-16.228-21.553-26.382-38.627-31.957-11.747-3.833-23.892-5.027-36.884-5.226zm-400.66 115.53c-2.738-12.842-5.426-25.486-8.213-38.477 8.512 0 16.575-0.05 24.589 0.099 0.648 0 1.643 1.444 1.842 2.39 2.489 11.1 4.878 22.25 7.317 33.4 0.199 0.846 0.448 1.692 0.697 2.688h53.759c-1.245-5.924-2.439-11.598-3.634-17.323-4.181-19.711-8.362-39.373-12.543-59.084-2.39-11.25-4.879-22.499-7.218-33.749-0.299-1.493-0.747-2.24-2.439-2.24-16.725 0.05-33.4 0-50.125 0-0.448 0-0.946 0.15-1.693 0.299 2.838 13.29 5.625 26.431 8.462 40.02h-12.394c-3.484 0-6.969-0.149-10.453 0-2.389 0.149-3.385-0.498-3.932-3.086-2.24-11.498-4.829-22.897-7.168-34.346-0.448-2.24-1.245-3.036-3.684-3.036-15.928 0.1-31.807 0.05-47.735 0.05-0.896 0-1.742 0.099-3.037 0.149 7.965 37.432 15.879 74.665 23.843 112.05h53.759zm661.77-300.65c-2.389-11.249-4.729-22.151-7.118-33.251h-31.459c-5.625-26.531-11.199-52.763-16.774-78.945-2.29-0.598-50.623-0.697-54.157-0.15 5.575 26.233 11.15 52.465 16.774 79.145h-31.458c2.439 11.299 4.728 22.151 7.068 33.201h117.17zm-512.5-112.4c3.036 12.295 6.023 24.241 9.059 36.387 0.847-0.05 1.593-0.15 2.34-0.199 7.018-0.797 14.037-1.743 21.105-2.34 2.937-0.249 6.023 0 8.91 0.548 7.168 1.294 11.15 6.122 13.191 12.792 0.697 2.19 1.145 4.43 1.642 6.67 1.743 7.865 3.435 15.73 5.078 23.644 0.149 0.647 0.199 1.344 0.298 2.24-2.588 0.747-5.177 0.249-7.715 0.348-2.489 0.1-4.978 0-7.466 0h-23.346c2.34 11.001 4.629 21.554 6.969 32.405h92.634c0-0.498 0.099-1.095 0-1.643-2.439-11.398-4.878-22.748-7.317-34.146-1.742-8.263-3.485-16.526-5.227-24.839-2.24-10.901-5.525-21.354-12.095-30.612-6.621-9.309-15.431-15.68-26.133-19.563-13.987-5.077-28.472-5.724-43.106-5.027-8.662 0.448-17.323 1.145-25.884 2.738-0.896 0.149-1.743 0.348-2.987 0.597zm113.2-0.15c8.014 37.631 15.978 75.063 23.943 112.59h108.91c-2.24-10.701-4.48-21.155-6.77-32.056-3.634-0.149-7.317-0.049-10.951-0.049h-43.953c-0.746-3.684-1.493-7.168-2.24-10.901h48.931c-1.792-8.512-3.534-16.725-5.327-25.138h-48.93c-0.946-4.031-1.841-7.864-2.787-12.046h55.75c0.248-2.439-5.078-28.77-6.521-32.354h-110.11zm-466.21 79.1c-1.443-7.466-3.235-14.634-4.43-22.101 5.276 0 10.154-0.149 15.032 0.05 3.485 0.149 6.173 2.041 8.213 4.878 1.792 2.489 2.44 5.475 2.987 8.362 0.896 4.58-1.643 8.363-6.272 8.711-5.027 0.399-10.154 0.1-15.48 0.1zm-46.79 33.649h76.905c7.018 0 13.987-0.498 20.757-2.539 9.308-2.787 17.123-7.615 21.802-16.476 3.136-5.923 3.882-12.344 3.086-18.865-1.195-9.906-4.032-19.263-9.657-27.676-6.371-9.457-15.082-15.779-25.734-19.562-8.512-2.986-17.322-3.932-26.233-4.032-7.615-0.049-15.181 0-22.797 0h-3.186c-1.692-7.964-3.335-15.729-5.027-23.544h-54.008c8.014 37.581 15.929 74.963 23.993 112.69zm782.7-49.379h-52.564c0 2.041 0.1 3.932 0 5.774-0.249 4.181-2.439 7.168-6.371 8.562-5.177 1.841-13.938 1.593-19.214-3.982-2.091-2.191-3.783-4.729-4.53-7.666-1.642-6.471-2.986-12.992-4.38-19.463-0.199-0.846-0.149-1.792-0.1-2.688 0.349-5.973 3.784-9.606 9.707-10.154 3.683-0.348 7.367-0.249 10.901 1.244 4.878 2.091 8.014 5.775 9.657 10.752 0.248 0.747 0.448 1.543 0.697 2.29 0.049 0.199 0.199 0.299 0.398 0.647h52.663c-0.647-2.339-1.145-4.43-1.891-6.471-6.621-18.666-19.463-31.359-37.831-38.676-9.258-3.684-18.865-5.575-28.82-6.421-10.802-0.946-21.553-0.598-32.206 1.294-8.81 1.543-17.222 4.38-24.44 9.905-8.064 6.123-12.295 14.436-13.688 24.341-1.095 7.964 0.298 15.68 1.841 23.395 1.743 8.412 4.032 16.625 8.263 24.191 6.372 11.399 15.481 19.911 27.129 25.735 11.149 5.575 22.996 8.213 35.391 9.159 10.801 0.846 21.553 0.597 32.255-1.245 8.611-1.493 16.824-4.231 24.042-9.407 7.367-5.327 11.896-12.445 13.589-21.404 1.294-6.571 0.946-13.042-0.548-19.662zm-442.2 15.18c-8.711-0.1-15.232-4.131-17.92-12.394-1.991-6.123-2.986-12.544-4.28-18.866-0.249-1.144-0.1-2.389 0-3.584 0.398-4.728 3.036-8.163 7.616-9.308 8.76-2.14 19.014 0.498 22.897 10.802 1.692 4.43 2.588 9.159 3.634 13.838 0.647 2.887 1.095 5.923 1.045 8.86-0.1 5.425-3.186 8.91-8.512 10.005-1.444 0.299-2.937 0.398-4.43 0.597zm-14.784-82.032c-11.349 0.15-21.204 0.847-30.761 3.534-7.965 2.24-15.381 5.575-21.404 11.399-6.372 6.173-9.757 13.788-10.453 22.499-0.548 6.77-0.15 13.54 1.692 20.16 1.593 5.774 2.837 11.598 4.779 17.223 3.932 11.299 10.751 20.607 20.259 27.924 8.86 6.819 18.964 10.901 29.816 13.34 10.502 2.389 21.105 3.136 31.807 2.887 10.602-0.249 21.105-1.394 31.16-5.226 5.675-2.141 10.901-4.978 15.281-9.159 6.92-6.571 10.354-14.734 10.951-24.192 0.399-6.62-0.398-13.091-1.742-19.562-1.593-7.715-3.584-15.281-7.068-22.449-6.172-12.743-15.63-22.25-28.273-28.621-11.2-5.675-23.196-8.363-35.69-9.209-3.883-0.249-7.765-0.498-10.254-0.647zm-142.34 62.472c5.227 0 10.304-0.199 15.381 0.05 3.584 0.199 6.471 2.09 8.362 5.176 1.743 2.838 2.489 6.123 2.489 9.408 0 2.489-1.244 4.43-3.633 5.326-1.195 0.448-2.489 0.847-3.734 0.896-4.081 0.15-8.163 0.199-12.295 0.249-0.647 0-1.343-0.149-2.14-0.298-1.493-6.969-2.937-13.838-4.43-20.857zm-42.559 53.759h73.918c8.313 0 16.576-0.498 24.689-2.539 5.874-1.493 11.399-3.634 16.178-7.516 6.869-5.525 9.507-12.842 8.91-21.404-0.498-7.068-2.34-13.738-6.372-19.662-5.027-7.367-12.046-12.046-20.458-14.833-0.896-0.299-1.842-0.597-3.335-1.045 0.996-0.498 1.444-0.747 1.941-0.946 7.616-2.489 11.15-8.064 11.598-15.73 0.249-3.882 0-7.765-0.249-11.647-0.248-5.078-0.647-10.155 0.2-15.182 0.099-0.647 0-1.344 0-2.19h-53.012c-0.1 1.393-0.349 2.688-0.249 3.932 0.249 5.475 0.547 10.951 0.846 16.426 0 0.797 0.149 1.593 0.05 2.39-0.299 4.081-2.141 6.321-6.222 6.769-3.933 0.448-7.915 0.398-12.096 0.597-2.19-10.253-4.281-20.159-6.421-30.114h-54.008c8.014 37.581 15.979 74.963 23.993 112.69zm308.38 150.12h54.008c-8.014-37.631-15.979-75.013-23.943-112.54h-54.008c8.014 37.582 15.929 74.964 23.943 112.54m414.3-0.05c-5.625-26.431-11.15-52.614-16.825-79.194 3.286-0.249 6.322-0.1 9.358-0.1h36.984c-2.339-11.299-4.629-22.2-6.919-33.251h-100.6c8.014 37.582 15.978 75.014 23.943 112.6h54.007zm-642.99-32.1c-0.796-3.683-1.493-7.168-2.29-10.951h48.931c-1.792-8.512-3.485-16.625-5.277-25.037h-48.93c-0.946-4.082-1.842-7.815-2.788-12.046 3.933-0.15 7.616-0.05 11.25-0.05h45.147c-2.09-11.05-4.48-21.653-6.72-32.355h-110.45c8.014 37.631 15.979 75.113 23.943 112.6h108.91c-2.29-10.752-4.53-21.305-6.77-32.106h-54.854zm305.79-80.49c-4.729 37.581-9.408 74.963-14.087 112.59h55.75c0.348-12.892 0.747-25.784 1.095-38.676 0.349-12.842 0.697-25.685 1.195-38.626 6.222 12.693 11.946 25.634 17.82 38.477 5.923 12.942 11.797 25.884 17.72 38.875h57.691c-0.547-2.439-55.899-102.19-62.519-112.64zm-223.6-0.15c-4.729 37.631-9.408 75.063-14.136 112.69h55.749c0.697-25.685 1.444-51.22 2.141-76.755 12.344 25.435 23.942 51.12 35.689 76.805h58.189c-1.941-3.534-3.733-6.72-5.525-9.906-16.078-28.771-32.156-57.591-48.233-86.362-2.788-4.978-5.575-9.906-8.313-14.883-0.597-1.095-1.294-1.693-2.589-1.543-0.597 0.049-1.194 0-1.791 0h-71.231zm414.9 45.64c-0.149 6.67-0.547 12.992-0.448 19.313 0.099 6.272 0.747 12.544 1.195 18.816-0.249 0.05-0.498 0.099-0.747 0.149-2.24-6.421-4.231-12.892-6.72-19.214-2.539-6.371-5.575-12.543-8.512-19.064h15.282zm59.035-45.496h-56.646c-0.796 2.788-0.398 5.575-0.597 8.263s-0.349 5.326-0.498 8.213h-30.314c-1.095-2.24-2.24-4.629-3.385-7.018-1.045-2.24-2.19-4.48-3.136-6.77-0.846-2.14-2.04-2.937-4.479-2.887-9.906 0.149-19.762 0.05-29.667 0.05h-23.943c0.399 2.24 57.94 108.51 60.977 112.79h77.452c4.729-37.481 9.507-74.863 14.286-112.64zm-702.16 58.886c5.127 0 9.906-0.249 14.684 0.05 5.724 0.398 9.308 3.733 10.752 9.258 0.298 1.145 0.547 2.34 0.746 3.484 0.648 4.132-1.244 7.168-5.375 7.915-5.327 0.995-10.702 0.348-15.829 0.498-0.399-0.498-0.548-0.647-0.598-0.846-1.443-6.72-2.887-13.44-4.38-20.409zm-42.509 53.908h74.117c8.213 0 16.377-0.548 24.341-2.489 4.778-1.195 9.308-2.887 13.489-5.525 7.716-4.828 11.797-11.897 11.748-20.906 0-9.707-2.788-18.666-9.458-26.083-4.779-5.326-10.752-8.811-17.521-11.001-0.896-0.298-1.792-0.597-3.286-1.095 1.046-0.448 1.543-0.746 2.041-0.896 7.716-2.588 11.3-8.213 11.598-16.028 0.15-4.181-0.348-8.362-0.348-12.544 0-4.579 0.199-9.109 0.298-13.688 0-0.796 0.1-1.543 0.15-2.489h-53.012c-0.15 1.394-0.398 2.638-0.349 3.883 0.249 4.977 0.598 9.955 0.846 14.933 0.1 1.393 0.2 2.787 0.1 4.181-0.249 3.683-2.24 6.023-5.923 6.471-4.032 0.448-8.114 0.498-12.444 0.697-2.191-10.205-4.281-20.11-6.422-30.115h-54.007c8.014 37.631 15.978 75.063 23.992 112.69z" fill="url(#linearGradient16118)"/></g></g></g></g></svg>
